#N canvas 2 48 1362 699 10;
#N canvas 0 50 450 300 (subpatch) 0;
#X array \$0-response 32 float 0;
#X coords 0 1 31 0 256 120 1 0 0;
#X restore 110 284 graph;
#X obj 441 115 soundfiler;
#X obj 455 198 inlet~;
#X obj 543 198 cyclone/cartopol~;
#N canvas 38 68 450 300 (subpatch) 0;
#X array \$0-coeff 64 float 0;
#X coords 0 1 63 -1 256 120 1 0 0;
#X restore 111 150 graph;
#X obj 561 120 line~;
#X obj 529 120 t b;
#X msg 561 95 0 \, 64 1;
#X obj 560 174 rfft~;
#X obj 402 456 outlet~;
#X obj 561 16 openpanel;
#X obj 105 104 bng 15 250 50 0 empty empty Abrir_filtro_WAV 17 7 0
10 -262144 -1 -1;
#X obj 236 120 hsl 128 15 0 1 0 1 empty empty empty -2 -8 0 10 -262144
-1 -1 0 0;
#X text 208 119 dry;
#X text 367 119 wet;
#X obj 532 339 *~;
#X obj 500 339 *~;
#X obj 425 307 expr 1-$f1;
#X obj 561 41 t b s;
#N canvas 2 50 1362 699 wav-generator 0;
#X obj 684 273 soundfiler;
#N canvas 0 50 450 300 (subpatch) 0;
#X array gen-wav 64 float 0;
#X coords 0 1 63 -1 256 140 1 0 0;
#X restore 866 301 graph;
#X msg 708 248 write -wave mean.wav gen-wav;
#X msg 511 200 \; gen-wav const 0;
#X obj 529 311 tabwrite gen-wav;
#X obj 512 282 f 0.5;
#X obj 565 259 t b b;
#X obj 458 261 bng 15 250 50 0 empty empty empty 17 7 0 10 -262144
-1 -1;
#X obj 509 237 t b b b;
#X obj 615 250 f 31;
#X obj 625 280 f 32;
#X obj 648 408 tabwrite gen-wav;
#X obj 650 380 f 0.5;
#X obj 703 358 t b b;
#X obj 596 359 bng 15 250 50 0 empty empty empty 17 7 0 10 -262144
-1 -1;
#X obj 647 335 t b b b;
#X obj 753 349 f 31;
#X obj 763 379 f 32;
#X obj 631 356 f -0.5;
#X obj 372 401 tabwrite gen-wav;
#X obj 427 351 t b b;
#X obj 320 352 bng 15 250 50 0 empty empty empty 17 7 0 10 -262144
-1 -1;
#X obj 371 328 t b b b;
#X msg 684 226 write -wave diff.wav gen-wav;
#X msg 653 183 write -wave reverb.wav gen-wav;
#X obj 355 349 f 0.1;
#X obj 487 372 f 31;
#X obj 477 342 f 15;
#X obj 374 373 f 0.9;
#X obj 188 337 tabwrite gen-wav;
#X obj 243 287 t b b;
#X obj 136 288 bng 15 250 50 0 empty empty empty 17 7 0 10 -262144
-1 -1;
#X obj 187 264 t b b b;
#X obj 303 308 f 31;
#X obj 293 278 f 15;
#X obj 191 309 f 1;
#X obj 171 285 f 0;
#X msg 670 203 write -wave phase.wav gen-wav;
#X connect 2 0 0 0;
#X connect 5 0 4 0;
#X connect 6 0 5 0;
#X connect 6 1 10 0;
#X connect 7 0 8 0;
#X connect 8 0 5 0;
#X connect 8 1 9 0;
#X connect 8 2 6 0;
#X connect 9 0 4 1;
#X connect 10 0 4 1;
#X connect 12 0 11 0;
#X connect 13 0 12 0;
#X connect 13 1 17 0;
#X connect 14 0 15 0;
#X connect 15 0 18 0;
#X connect 15 1 16 0;
#X connect 15 2 13 0;
#X connect 16 0 11 1;
#X connect 17 0 11 1;
#X connect 18 0 11 0;
#X connect 20 0 28 0;
#X connect 20 1 26 0;
#X connect 21 0 22 0;
#X connect 22 0 25 0;
#X connect 22 1 27 0;
#X connect 22 2 20 0;
#X connect 23 0 0 0;
#X connect 24 0 0 0;
#X connect 25 0 19 0;
#X connect 26 0 19 1;
#X connect 27 0 19 1;
#X connect 28 0 19 0;
#X connect 30 0 35 0;
#X connect 30 1 33 0;
#X connect 31 0 32 0;
#X connect 32 0 36 0;
#X connect 32 1 34 0;
#X connect 32 2 30 0;
#X connect 33 0 29 1;
#X connect 34 0 29 1;
#X connect 35 0 29 0;
#X connect 36 0 29 0;
#X connect 37 0 0 0;
#X restore 700 370 pd wav-generator;
#X text 687 353 Para gerar novos coeffs;
#X obj 560 146 tabread4~ \$0-coeff;
#X obj 561 221 tabwrite~ \$0-response;
#X msg 441 94 read \$1 \$2-coeff;
#X obj 442 74 pack s \$0;
#X obj 538 260 iemlib/FIR~ \$0-coeff 64;
#X obj 408 422 zexy/multiplex~;
#X obj 450 396 r \$0-on;
#X obj 147 119 tgl 15 0 \$0-on empty on/off 17 7 0 10 -262144 -1 -1
0 1;
#X connect 2 0 16 0;
#X connect 2 0 25 0;
#X connect 3 0 22 0;
#X connect 5 0 21 0;
#X connect 6 0 22 0;
#X connect 7 0 5 0;
#X connect 7 0 6 0;
#X connect 8 0 3 0;
#X connect 8 1 3 1;
#X connect 10 0 18 0;
#X connect 11 0 10 0;
#X connect 12 0 17 0;
#X connect 12 0 15 1;
#X connect 15 0 26 1;
#X connect 16 0 26 1;
#X connect 17 0 16 1;
#X connect 18 0 7 0;
#X connect 18 1 24 0;
#X connect 21 0 8 0;
#X connect 23 0 1 0;
#X connect 24 0 23 0;
#X connect 25 0 15 0;
#X connect 26 0 9 0;
#X connect 27 0 26 0;
#X coords 0 -1 1 1 300 310 2 100 100;
