#N canvas 964 68 941 1012 10;
#X obj 103 103 cnv 15 100 20 empty empty Flanger 20 12 0 14 -262144
-66577 0;
#X obj 50 59 inlet~;
#X obj 65 492 outlet~;
#X obj 65 451 zexy/multiplex~;
#X obj 178 395 r \$0-on;
#X obj 212 110 tgl 15 0 \$0-on empty on/off 17 7 0 10 -262144 -1 -1
1 1;
#X obj 321 250 vd~ delayedSig;
#X obj 389 61 phasor~;
#X obj 392 18 hsl 128 15 0 3 0 0 empty empty rate -2 -8 0 10 -262144
-1 -1 600 1;
#X floatatom 389 38 5 0 0 0 - - -, f 5;
#X obj 326 134 cos~;
#X obj 325 169 *~ 2;
#X obj 325 199 *~ 2;
#X obj 324 289 *~ 0.8;
#X obj 543 145 hsl 128 15 0 5 0 0 empty empty depth -2 -8 0 10 -262144
-1 -1 4200 1;
#X obj 105 220 delwrite~ delayedSig 100;
#X obj 525 283 wrap~;
#X floatatom 540 168 5 0 0 0 - - -, f 5;
#X obj 446 134 cos~;
#X obj 445 169 *~ 2;
#X obj 445 199 *~ 2;
#X obj 445 106 wrap~;
#X obj 444 83 +~ 0.5;
#X obj 441 250 vd~ delayedSig2;
#X obj 87 278 delwrite~ delayedSig2 100;
#X obj 543 195 hsl 128 15 -0.99 0.99 0 0 empty empty empty -2 -8 0
10 -262144 -1 -1 7400 1;
#X floatatom 540 218 5 0 0 0 - - -, f 5;
#X obj 444 283 *~ 0.8;
#X obj 148 368 +~;
#X obj 63 389 +~;
#X floatatom 554 350 0 0 100 0 - - -;
#X text 601 344 <-- delay in samples;
#X obj 554 373 / 44.1;
#X obj 554 397 pack 0 30;
#X obj 554 422 line~;
#X obj 554 326 random 100;
#X obj 586 280 bang~;
#X connect 1 0 15 0;
#X connect 1 0 24 0;
#X connect 1 0 29 0;
#X connect 3 0 2 0;
#X connect 4 0 3 0;
#X connect 6 0 13 0;
#X connect 7 0 10 0;
#X connect 7 0 22 0;
#X connect 8 0 9 0;
#X connect 9 0 7 0;
#X connect 10 0 11 0;
#X connect 11 0 12 0;
#X connect 12 0 6 0;
#X connect 13 0 28 0;
#X connect 14 0 17 0;
#X connect 17 0 11 1;
#X connect 17 0 12 1;
#X connect 17 0 19 1;
#X connect 17 0 20 1;
#X connect 18 0 19 0;
#X connect 19 0 20 0;
#X connect 20 0 23 0;
#X connect 21 0 18 0;
#X connect 22 0 21 0;
#X connect 23 0 27 0;
#X connect 25 0 26 0;
#X connect 26 0 27 1;
#X connect 27 0 28 1;
#X connect 28 0 29 1;
#X connect 29 0 3 1;
#X connect 30 0 32 0;
#X connect 32 0 33 0;
#X connect 33 0 34 0;
#X connect 34 0 6 0;
#X connect 34 0 23 0;
#X connect 35 0 30 0;
#X connect 36 0 35 0;
#X coords 0 -1 1 1 200 200 2 100 100;
