#N canvas 1081 68 827 793 10;
#X obj 271 60 inlet;
#X obj 50 326 freeverb~;
#X obj 81 60 inlet~;
#X obj 50 595 outlet~;
#X obj 120 116 hsl 128 15 0 1 0 0 empty empty wet -2 -8 0 10 -262144
-1 -1 5800 1;
#X msg 117 136 wet \$1;
#X obj 122 179 hsl 128 15 0 1 0 0 empty empty dry -2 -8 0 10 -262144
-1 -1 9300 1;
#X obj 123 240 hsl 128 15 0 1 0 0 empty empty roomsize -2 -8 0 10 -262144
-1 -1 6600 1;
#X msg 119 199 dry \$1;
#X msg 120 260 roomsize \$1;
#X obj 148 497 delwrite~ delayT 4000;
#X obj 129 566 delread~ delayT 1000;
#X obj 354 135 outlet;
#X connect 0 0 12 0;
#X connect 1 0 3 0;
#X connect 1 0 10 0;
#X connect 2 0 1 0;
#X connect 4 0 5 0;
#X connect 5 0 1 0;
#X connect 6 0 8 0;
#X connect 7 0 9 0;
#X connect 8 0 1 0;
#X connect 9 0 1 0;
#X connect 11 0 3 0;
#X coords 0 -1 1 1 200 200 2 100 100;
