#N canvas 2 48 1362 699 10;
#X obj 105 105 bng 15 250 50 0 empty empty Abre_arquivo_MIDI 17 7 0
10 -262144 -1 -1;
#X obj 407 117 openpanel;
#X msg 439 172 read \$1;
#X obj 407 140 t b s;
#X obj 407 205 cyclone/seq;
#X obj 407 228 cyclone/midiparse;
#X obj 118 156 hsl 128 15 0 0.009 0 0 empty empty volume -2 -8 0 10
-262144 -1 -1 8300 1;
#X obj 528 311 sel 0;
#X obj 527 380 outlet;
#X obj 407 251 unpack;
#X obj 411 311 stripnote;
#X obj 411 334 mtof;
#X obj 411 357 pack;
#X obj 411 380 outlet;
#X obj 504 284 * 0;
#X obj 39 104 s \$0-init;
#X obj 103 207 s \$0-volume;
#X obj 267 159 s \$0-stop;
#X obj 407 94 r \$0-init;
#X obj 504 261 r \$0-volume;
#X obj 369 172 r \$0-stop;
#X obj 209 131 bng 15 250 50 0 empty empty parar 17 7 0 10 -262144
-1 -1;
#X obj 585 315 r \$0-stop;
#X msg 357 202 stop;
#X connect 0 0 15 0;
#X connect 1 0 3 0;
#X connect 2 0 4 0;
#X connect 3 0 4 0;
#X connect 3 1 2 0;
#X connect 4 0 5 0;
#X connect 5 0 9 0;
#X connect 6 0 16 0;
#X connect 7 0 8 0;
#X connect 9 0 10 0;
#X connect 9 1 14 0;
#X connect 10 0 11 0;
#X connect 10 1 12 1;
#X connect 11 0 12 0;
#X connect 12 0 13 0;
#X connect 14 0 10 1;
#X connect 14 0 7 0;
#X connect 18 0 1 0;
#X connect 19 0 14 1;
#X connect 20 0 23 0;
#X connect 21 0 17 0;
#X connect 22 0 8 0;
#X connect 23 0 4 0;
#X coords 0 -1 1 1 160 80 2 100 100;
