#N canvas 2 48 1362 699 10;
#X obj 567 167 unpack;
#X obj 567 308 *~;
#X obj 566 114 inlet;
#X obj 635 120 inlet;
#X obj 114 129 vradio 15 1 0 4 empty empty empty 0 -8 0 10 -262144
-1 -1 0;
#X text 135 129 seno;
#X text 135 145 triangular;
#X text 134 161 dente-de-serra;
#X text 135 174 quadrada;
#X obj 113 346 sel 0 1 2 3;
#X obj 463 385 outlet~;
#X obj 522 184 outlet;
#X obj 665 167 outlet;
#X obj 567 211 phasor~ 440;
#X obj 910 228 until;
#X obj 910 256 f;
#X obj 902 131 int;
#N canvas 2 50 1362 699 (subpatch) 0;
#X array \$0-wave 64 float 5;
#A 0 0 0.0995989 0.198208 0.294847 0.388556 0.478403 0.563496 0.642988
0.71609 0.782075 0.840287 0.890149 0.931163 0.962924 0.985114 0.997514
1 0.992547 0.975231 0.948222 0.911789 0.866294 0.81219 0.750013 0.680383
0.603991 0.521596 0.434017 0.342125 0.246832 0.149087 0.049859 -0.0498637
-0.149091 -0.246836 -0.342129 -0.434021 -0.5216 -0.603994 -0.680386
-0.750016 -0.812192 -0.866296 -0.91179 -0.948223 -0.975232 -0.992548
-1 -0.997513 -0.985113 -0.962923 -0.931162 -0.890147 -0.840285 -0.782072
-0.716087 -0.642984 -0.563492 -0.478399 -0.388552 -0.294843 -0.198204
-0.0995941 4.46777e-06;
#X coords 0 1 63 -1 200 140 1 0 0;
#X restore 280 128 graph;
#X obj 567 279 tabread~ \$0-wave;
#X obj 208 263 tgl 15 0 empty empty on/off 17 7 0 10 -262144 -1 -1
0 1;
#X obj 567 140 spigot;
#X obj 878 496 until;
#X obj 801 533 f;
#X obj 915 532 + 1;
#X obj 899 588 sel 0;
#X obj 838 510 f 0;
#X obj 898 566 mod 64;
#X obj 782 561 t f f f;
#X obj 832 468 t b b;
#X obj 823 429 t b f f;
#X obj 1025 218 pack \$0;
#X msg 1025 244 \; \$1-wave const 0;
#X obj 767 187 pack \$0;
#X obj 801 586 tabread \$0-wave;
#X obj 675 662 tabwrite \$0-wave;
#X obj 941 258 + 1;
#X obj 902 156 t b f b b;
#X obj 823 406 f;
#X obj 824 331 mod 2;
#X obj 785 357 expr if($f1>$f2 \, 1 \, 0);
#X obj 785 379 sel 1;
#X obj 122 421 f 0;
#X obj 182 421 f 2;
#X obj 87 422 f -1;
#X obj 152 422 f 1;
#X obj 228 423 f -1;
#X obj 266 424 f 1;
#X obj 946 205 f 1;
#X obj 910 278 t f f f f;
#X obj 981 303 / 2;
#X obj 981 325 int;
#X msg 768 208 \; \$1-wave normalize 1;
#X obj 567 189 t f f;
#X obj 845 106 expr if($f2 \, 22050/$f1 \, 1);
#X obj 12 420 f 1;
#X obj 36 419 f 0;
#X obj 600 618 expr (sin(6.28319*$f1*$f2/63)*$f4+$f3);
#X obj 566 236 *~ 63;
#X obj 208 312 s \$0-off;
#X obj 605 88 r \$0-off;
#X obj 606 248 r \$0-off;
#X obj 21 455 s \$0-harmonics;
#X obj 998 66 r \$0-harmonics;
#X obj 102 489 s \$0-completeness;
#X obj 764 298 r \$0-completeness;
#X obj 166 454 s \$0-power;
#X obj 1042 326 r \$0-power;
#X obj 252 454 s \$0-signal;
#X obj 1125 327 r \$0-signal;
#X obj 614 188 s \$0-f0;
#X obj 845 80 r \$0-f0;
#X obj 936 364 expr pow(1/$f1 \, $f2)*pow($f3 \, $f4);
#X obj 936 386 s \$0-amp;
#X obj 842 617 r \$0-amp;
#X connect 0 0 52 0;
#X connect 0 1 1 1;
#X connect 1 0 10 0;
#X connect 2 0 20 0;
#X connect 3 0 12 0;
#X connect 4 0 9 0;
#X connect 9 0 55 0;
#X connect 9 1 42 0;
#X connect 9 1 41 0;
#X connect 9 1 45 0;
#X connect 9 1 54 0;
#X connect 9 2 43 0;
#X connect 9 2 44 0;
#X connect 9 2 46 0;
#X connect 9 2 54 0;
#X connect 9 3 44 0;
#X connect 9 3 41 0;
#X connect 9 3 46 0;
#X connect 9 3 54 0;
#X connect 13 0 57 0;
#X connect 14 0 15 0;
#X connect 15 0 35 0;
#X connect 15 0 48 0;
#X connect 16 0 36 0;
#X connect 18 0 1 0;
#X connect 19 0 58 0;
#X connect 20 0 0 0;
#X connect 20 0 11 0;
#X connect 21 0 22 0;
#X connect 22 0 23 0;
#X connect 22 0 27 0;
#X connect 23 0 22 1;
#X connect 23 0 26 0;
#X connect 24 0 21 1;
#X connect 25 0 22 0;
#X connect 26 0 24 0;
#X connect 27 0 56 0;
#X connect 27 1 34 1;
#X connect 27 2 33 0;
#X connect 28 0 21 0;
#X connect 28 1 25 0;
#X connect 29 0 28 0;
#X connect 29 1 56 1;
#X connect 30 0 31 0;
#X connect 32 0 51 0;
#X connect 33 0 56 2;
#X connect 35 0 15 1;
#X connect 36 0 32 0;
#X connect 36 1 14 0;
#X connect 36 2 47 0;
#X connect 36 3 30 0;
#X connect 37 0 29 0;
#X connect 38 0 39 0;
#X connect 39 0 40 0;
#X connect 40 0 37 0;
#X connect 41 0 63 0;
#X connect 42 0 65 0;
#X connect 43 0 63 0;
#X connect 44 0 65 0;
#X connect 45 0 67 0;
#X connect 46 0 67 0;
#X connect 47 0 15 1;
#X connect 48 0 38 0;
#X connect 48 1 71 0;
#X connect 48 2 37 1;
#X connect 48 3 49 0;
#X connect 49 0 50 0;
#X connect 50 0 71 3;
#X connect 52 0 13 0;
#X connect 52 1 69 0;
#X connect 53 0 16 0;
#X connect 54 0 61 0;
#X connect 55 0 61 0;
#X connect 56 0 34 0;
#X connect 57 0 18 0;
#X connect 59 0 20 1;
#X connect 60 0 1 1;
#X connect 62 0 53 1;
#X connect 64 0 39 1;
#X connect 66 0 71 1;
#X connect 68 0 71 2;
#X connect 70 0 53 0;
#X connect 71 0 72 0;
#X connect 73 0 56 3;
#X coords 0 -1 1 1 400 200 2 100 100;
