#N canvas 2 48 1362 699 10;
#X obj 1 339 cnv 15 1200 10 empty empty empty 20 12 0 14 -228856 -66577
0;
#X obj 1191 346 cnv 15 10 600 empty empty empty 20 12 0 14 -162280
-66577 0;
#X obj 1191 914 cnv 15 10 300 empty empty empty 20 12 0 14 -99865 -66577
0;
#X obj 1 0 cnv 15 10 350 empty empty Controle 20 12 0 14 -228856 -66577
0;
#X obj 1 351 cnv 15 10 600 empty empty Síntese 20 12 0 14 -162280
-66577 0;
#X obj 1 914 cnv 15 10 300 empty empty Envelope 20 12 0 14 -99865 -66577
0;
#X obj 856 -1 cnv 15 10 350 empty empty empty 20 12 0 14 -228856 -66577
0;
#X obj 1 903 cnv 15 1200 10 empty empty empty 20 12 0 14 -162280 -66577
0;
#X obj 1 1204 cnv 15 1200 10 empty empty empty 20 12 0 14 -99865 -66577
0;
#X obj 1191 1215 cnv 15 10 400 empty empty empty 20 12 0 14 -1 -66577
0;
#X obj 1 1215 cnv 15 10 400 empty empty Efeitos 20 12 0 14 -1 -66577
0;
#X obj 1 1605 cnv 15 1200 10 empty empty empty 20 12 0 14 -1 -66577
0;
#N canvas 38 68 1362 699 play 0;
#X obj 545 209 dac~;
#X obj 545 147 inlet~;
#X obj 728 231 rfft~;
#X obj 727 254 cyclone/cartopol~;
#N canvas 0 50 450 250 (subpatch) 0;
#X array \$0-mag 64 float 1;
#A 0 0.0559106 0.0765139 0.0127507 0.00649182 0.0044893 0.00353644
0.0028899 0.00245776 0.00215079 0.00190463 0.00172999 0.00155835 0.00141839
0.00137503 0.00128626 0.00120555 0.00114412 0.00108898 0.00104491 0.00100272
0.000970789 0.00093792 0.000915571 0.000889194 0.000879792 0.000864976
0.000831766 0.000819179 0.000818839 0.000809393 0.000807124 0.000802088
0.000803287 0 0 0 0 0 0 0 0 0 0 0 0 0 0 0 0 0 0 0 0 0 0 0 0 0 0 0 0
0 0 0;
#X coords 0 8 64 0 200 140 1 0 0;
#X restore 181 119 graph;
#X obj 678 252 bang~;
#X obj 121 271 hsl 128 15 0.01 1 1 1 empty empty volume -2 -8 0 10
-262144 -1 -1 12700 0;
#X obj 546 179 *~;
#X obj 727 308 tabwrite~ \$0-mag;
#X obj 104 106 cnv 15 50 30 empty empty Player 0 12 0 14 -262144 -66577
0;
#X connect 1 0 7 0;
#X connect 2 0 3 0;
#X connect 2 1 3 1;
#X connect 3 0 8 0;
#X connect 5 0 8 0;
#X connect 6 0 7 1;
#X connect 7 0 0 0;
#X connect 7 0 2 0;
#X connect 7 0 0 1;
#X coords 0 -1 1 1 300 200 2 100 100;
#X restore 880 47 pd play;
#X obj 29 31 leitor-midi;
#X obj 319 8 sequenciador;
#X obj 881 22 catch~ out;
#X obj 90 1580 throw~ out;
#X obj 1191 -2 cnv 15 10 350 empty empty empty 20 12 0 14 -228856 -66577
0;
#X obj 19 404 oscilador;
#X obj 389 408 aditiva;
#X obj 91 955 adsr;
#X obj 90 1261 fir;
#X obj 681 383 subtrativa;
#X obj 678 635 subtrativanoise;
#X obj 460 959 percursivo;
#X obj 29 115 s out1;
#X obj 182 118 s out2;
#X obj 319 345 s out1;
#X obj 662 336 s out2;
#X obj 19 380 r out1;
#X obj 332 382 r out2;
#X obj 389 381 r out1;
#X obj 562 383 r out2;
#X obj 681 361 r out1;
#X obj 884 359 r out2;
#X obj 678 611 r out1;
#X obj 901 613 r out2;
#X obj 19 589 throw~ out3;
#X obj 195 590 s out4;
#X obj 91 933 catch~ out3;
#X obj 332 589 s out5;
#X obj 389 781 throw~ out3;
#X obj 495 780 s out4;
#X obj 563 778 s out5;
#X obj 681 589 throw~ out3;
#X obj 802 589 s out4;
#X obj 886 587 s out5;
#X obj 679 881 throw~ out3;
#X obj 810 883 s out4;
#X obj 902 881 s out5;
#X obj 237 934 r out4;
#X obj 344 932 r out5;
#X obj 460 933 catch~ out3;
#X obj 606 934 r out4;
#X obj 713 932 r out5;
#X obj 430 1258 reverb;
#X obj 92 1164 throw~ out6;
#X obj 237 1163 s out7;
#X obj 346 1161 s out8;
#X obj 461 1170 throw~ out6;
#X obj 606 1169 s out7;
#X obj 715 1167 s out8;
#X obj 430 1470 throw~ out;
#X obj 89 1237 catch~ out6;
#X obj 429 1237 catch~ out6;
#X obj 692 1261 wah;
#X obj 686 1228 catch~ out6;
#X obj 692 1566 throw~ out;
#X connect 13 0 25 0;
#X connect 13 1 26 0;
#X connect 14 0 27 0;
#X connect 14 1 28 0;
#X connect 15 0 12 0;
#X connect 18 0 37 0;
#X connect 18 1 38 0;
#X connect 18 2 40 0;
#X connect 19 0 41 0;
#X connect 19 1 42 0;
#X connect 19 2 43 0;
#X connect 20 0 56 0;
#X connect 20 1 57 0;
#X connect 20 2 58 0;
#X connect 21 0 16 0;
#X connect 22 0 44 0;
#X connect 22 1 45 0;
#X connect 22 2 46 0;
#X connect 23 0 47 0;
#X connect 23 1 48 0;
#X connect 23 2 49 0;
#X connect 24 0 59 0;
#X connect 24 1 60 0;
#X connect 24 2 61 0;
#X connect 29 0 18 0;
#X connect 30 0 18 1;
#X connect 31 0 19 0;
#X connect 32 0 19 1;
#X connect 33 0 22 0;
#X connect 34 0 22 1;
#X connect 35 0 23 0;
#X connect 36 0 23 1;
#X connect 39 0 20 0;
#X connect 50 0 20 1;
#X connect 51 0 20 2;
#X connect 52 0 24 0;
#X connect 53 0 24 1;
#X connect 54 0 24 2;
#X connect 55 0 62 0;
#X connect 63 0 21 0;
#X connect 64 0 55 0;
#X connect 65 0 67 0;
#X connect 66 0 65 0;
