#N canvas 2 48 1362 699 10;
#X obj 1 339 cnv 15 1200 10 empty empty empty 20 12 0 14 -228856 -66577
0;
#X obj 1191 351 cnv 15 10 600 empty empty empty 20 12 0 14 -162280
-66577 0;
#X obj 1191 914 cnv 15 10 300 empty empty empty 20 12 0 14 -99865 -66577
0;
#X obj 1 0 cnv 15 10 350 empty empty Controle 20 12 0 14 -228856 -66577
0;
#X obj 1 351 cnv 15 10 600 empty empty Síntese 20 12 0 14 -162280
-66577 0;
#X obj 1 914 cnv 15 10 300 empty empty Envelope 20 12 0 14 -99865 -66577
0;
#X obj 856 -1 cnv 15 10 350 empty empty empty 20 12 0 14 -228856 -66577
0;
#X obj 1 903 cnv 15 1200 10 empty empty empty 20 12 0 14 -162280 -66577
0;
#X obj 1 1204 cnv 15 1200 10 empty empty empty 20 12 0 14 -99865 -66577
0;
#X obj 1191 1215 cnv 15 10 400 empty empty empty 20 12 0 14 -1 -66577
0;
#X obj 1 1215 cnv 15 10 400 empty empty Efeitos 20 12 0 14 -1 -66577
0;
#X obj 1 1605 cnv 15 1200 10 empty empty empty 20 12 0 14 -1 -66577
0;
#N canvas 38 68 1362 699 play 0;
#X obj 545 209 dac~;
#X obj 545 147 inlet~;
#X obj 728 231 rfft~;
#X obj 727 254 cyclone/cartopol~;
#N canvas 0 50 450 250 (subpatch) 0;
#X array \$0-mag 64 float 1;
#A 0 0 0 0 0 0 0 0 0 0 0 0 0 0 0 0 0 0 0 0 0 0 0 0 0 0 0 0 0 0 0 0
0 0 0 0 0 0 0 0 0 0 0 0 0 0 0 0 0 0 0 0 0 0 0 0 0 0 0 0 0 0 0 0 0;
#X coords 0 8 64 0 200 140 1 0 0;
#X restore 181 119 graph;
#X obj 678 252 bang~;
#X obj 121 271 hsl 128 15 0.01 1 1 1 empty empty volume -2 -8 0 10
-262144 -1 -1 12700 0;
#X obj 546 179 *~;
#X obj 727 308 tabwrite~ \$0-mag;
#X obj 104 106 cnv 15 50 30 empty empty Player 0 12 0 14 -262144 -66577
0;
#X connect 1 0 7 0;
#X connect 2 0 3 0;
#X connect 2 1 3 1;
#X connect 3 0 8 0;
#X connect 5 0 8 0;
#X connect 6 0 7 1;
#X connect 7 0 0 0;
#X connect 7 0 2 0;
#X connect 7 0 0 1;
#X coords 0 -1 1 1 300 200 2 100 100;
#X restore 880 47 pd play;
#X obj 29 31 leitor-midi;
#X obj 319 8 sequenciador;
#X obj 881 22 catch~ out;
#X obj 115 1582 throw~ out;
#X obj 1191 -2 cnv 15 10 350 empty empty empty 20 12 0 14 -228856 -66577
0;
#X obj 89 361 oscilador;
#X obj 509 364 aditiva;
#X obj 91 955 adsr;
#X obj 90 1221 fir;
#X obj 831 366 subtrativa;
#X obj 116 571 subtrativanoise;
#X obj 91 1160;
#X obj 460 959 percursivo;
#X connect 13 0 18 0;
#X connect 13 0 19 0;
#X connect 13 0 22 0;
#X connect 13 1 18 1;
#X connect 13 1 19 1;
#X connect 13 1 22 1;
#X connect 14 0 19 0;
#X connect 14 0 18 0;
#X connect 14 0 22 0;
#X connect 14 0 23 0;
#X connect 14 1 19 1;
#X connect 14 1 18 1;
#X connect 14 1 22 1;
#X connect 14 1 23 1;
#X connect 15 0 12 0;
#X connect 18 0 20 0;
#X connect 18 1 20 1;
#X connect 18 2 20 2;
#X connect 19 0 20 0;
#X connect 19 1 20 1;
#X connect 19 2 20 2;
#X connect 20 0 21 0;
#X connect 20 0 24 0;
#X connect 21 0 16 0;
#X connect 22 0 20 0;
#X connect 22 1 20 1;
#X connect 22 2 20 2;
#X connect 23 0 20 0;
#X connect 23 1 20 1;
#X connect 23 2 20 2;
