#N canvas 2 48 1362 699 10;
#X obj 411 474 *~;
#X obj 501 118 inlet~;
#X obj 410 506 outlet~;
#X obj 559 116 inlet;
#X obj 612 115 inlet;
#X obj 606 151 outlet;
#X obj 555 146 outlet;
#X obj 40 491 vline~;
#N canvas 2 50 1362 699 (subpatch) 0;
#X array \$0-ad 64 float 1;
#A 0 0 0 0 0 0 0 0 0 0 0 0 0 0 0 0 0 0 0 0 0 0 0 0 0 0 0 0 0 0 0 0
0 0 0 0 0 0 0 0 0 0 0 0 0 0 0 0 0 0 0 0 0 0 0 0 0 0 0 0 0 0 0 0 0;
#X coords 0 1 64 -1 200 140 1 0 0;
#X restore 193 133 graph;
#X msg 40 465 1 \, 0 0 0.03;
#X obj 244 470 samplerate~;
#X obj 259 430 bng 15 250 50 0 empty empty empty 17 7 0 10 -262144
-1 -1;
#X obj 118 134 vsl 15 128 0 10 0 0 empty empty empty 0 -9 0 10 -262144
-1 -1 8900 0;
#X floatatom 130 273 5 0 0 0 - - -, f 5;
#X obj 39 516 fexpr~ $x1+$y1[-1]*pow(2 \, -$f2/$f3);
#X obj 252 350 phasor~ 689.062;
#X obj 35 599 tabwrite~ \$0-ad;
#X obj 252 372 *~ 64;
#X obj 252 394 tabread~ \$0-ad;
#X obj 48 545 bang~;
#X obj 120 110 tgl 15 0 \$0-on empty on/off 17 7 0 10 -262144 -1 -1
0 1;
#X obj 123 537 r \$0-on;
#X obj 97 570 spigot;
#X msg 544 292 stop;
#X msg 523 196 start;
#X connect 0 0 2 0;
#X connect 1 0 0 1;
#X connect 3 0 6 0;
#X connect 3 0 9 0;
#X connect 3 0 24 0;
#X connect 4 0 5 0;
#X connect 4 0 23 0;
#X connect 7 0 14 0;
#X connect 9 0 7 0;
#X connect 10 0 14 2;
#X connect 11 0 10 0;
#X connect 12 0 13 0;
#X connect 12 0 14 1;
#X connect 14 0 16 0;
#X connect 15 0 17 0;
#X connect 17 0 18 0;
#X connect 18 0 0 0;
#X connect 19 0 22 0;
#X connect 21 0 22 1;
#X connect 22 0 16 0;
#X connect 23 0 14 0;
#X connect 24 0 14 0;
#X coords 0 -1 1 1 300 200 2 100 100;
