#N canvas 38 68 999 763 10;
#X obj 75 35 inlet~;
#X obj 93 1025 outlet~;
#X obj 347 87 rpole~;
#X obj 347 62 rzero_rev~;
#X obj 347 136 rpole~;
#X obj 347 111 rzero_rev~;
#X obj 347 184 rpole~;
#X obj 347 159 rzero_rev~;
#X obj 347 233 rpole~;
#X obj 347 208 rzero_rev~;
#X obj 92 963 +~;
#X obj 512 89 phasor~ 0.3;
#X obj 512 121 expr~ 1 - 0.03 - 0.6*abs($v1-0.5)*abs($v1-0.5);
#X obj 495 267 rpole~;
#X obj 495 242 rzero_rev~;
#X obj 495 316 rpole~;
#X obj 495 291 rzero_rev~;
#X obj 495 364 rpole~;
#X obj 495 339 rzero_rev~;
#X obj 495 413 rpole~;
#X obj 495 388 rzero_rev~;
#X obj 670 309 phasor~ 0.3;
#X obj 670 341 expr~ 1 - 0.03 - 0.6*abs($v1-0.5)*abs($v1-0.5);
#X obj 495 467 rpole~;
#X obj 495 442 rzero_rev~;
#X obj 495 516 rpole~;
#X obj 495 491 rzero_rev~;
#X obj 495 564 rpole~;
#X obj 495 539 rzero_rev~;
#X obj 495 613 rpole~;
#X obj 495 588 rzero_rev~;
#X obj 647 468 rpole~;
#X obj 647 443 rzero_rev~;
#X obj 647 517 rpole~;
#X obj 647 492 rzero_rev~;
#X obj 647 565 rpole~;
#X obj 647 540 rzero_rev~;
#X obj 647 614 rpole~;
#X obj 647 589 rzero_rev~;
#X obj 802 640 phasor~ 0.3;
#X obj 802 672 expr~ 1 - 0.03 - 0.6*abs($v1-0.5)*abs($v1-0.5);
#X obj 647 668 rpole~;
#X obj 647 643 rzero_rev~;
#X obj 647 717 rpole~;
#X obj 647 692 rzero_rev~;
#X obj 647 765 rpole~;
#X obj 647 740 rzero_rev~;
#X obj 647 814 rpole~;
#X obj 647 789 rzero_rev~;
#X obj 648 864 rpole~;
#X obj 648 839 rzero_rev~;
#X obj 648 913 rpole~;
#X obj 648 888 rzero_rev~;
#X obj 648 961 rpole~;
#X obj 648 936 rzero_rev~;
#X obj 648 1010 rpole~;
#X obj 648 985 rzero_rev~;
#X obj 347 24 zexy/demultiplex~ 4 8 12, f 43;
#X obj 249 924 zexy/multiplex~ 4 8 12;
#X obj 114 118 vradio 15 1 0 3 empty empty Filtros 0 -8 0 10 -262144
-1 -1 2;
#X obj 135 115 cnv 15 100 20 empty empty 4 20 12 0 14 -262144 -66577
0;
#X obj 135 135 cnv 15 100 20 empty empty 8 20 12 0 14 -262144 -66577
0;
#X obj 135 155 cnv 15 100 20 empty empty 12 20 12 0 14 -262144 -66577
0;
#X floatatom 209 116 5 0 0 0 - - -, f 5;
#X obj 110 181 tgl 15 0 \$0-on empty on/off 17 7 0 10 -262144 -1 -1
1 1;
#X obj 25 961 r \$0-on;
#X obj 109 995 zexy/multiplex~;
#X connect 0 0 10 0;
#X connect 0 0 57 0;
#X connect 2 0 5 0;
#X connect 3 0 2 0;
#X connect 4 0 7 0;
#X connect 5 0 4 0;
#X connect 6 0 9 0;
#X connect 7 0 6 0;
#X connect 8 0 58 0;
#X connect 9 0 8 0;
#X connect 10 0 66 1;
#X connect 11 0 12 0;
#X connect 12 0 3 1;
#X connect 12 0 2 1;
#X connect 12 0 5 1;
#X connect 12 0 4 1;
#X connect 12 0 7 1;
#X connect 12 0 6 1;
#X connect 12 0 9 1;
#X connect 12 0 8 1;
#X connect 13 0 16 0;
#X connect 14 0 13 0;
#X connect 15 0 18 0;
#X connect 16 0 15 0;
#X connect 17 0 20 0;
#X connect 18 0 17 0;
#X connect 19 0 24 0;
#X connect 20 0 19 0;
#X connect 21 0 22 0;
#X connect 22 0 14 1;
#X connect 22 0 13 1;
#X connect 22 0 16 1;
#X connect 22 0 15 1;
#X connect 22 0 18 1;
#X connect 22 0 17 1;
#X connect 22 0 20 1;
#X connect 22 0 19 1;
#X connect 22 0 24 1;
#X connect 22 0 26 1;
#X connect 22 0 28 1;
#X connect 22 0 30 1;
#X connect 23 0 26 0;
#X connect 24 0 23 0;
#X connect 25 0 28 0;
#X connect 26 0 25 0;
#X connect 27 0 30 0;
#X connect 28 0 27 0;
#X connect 29 0 58 1;
#X connect 30 0 29 0;
#X connect 31 0 34 0;
#X connect 32 0 31 0;
#X connect 33 0 36 0;
#X connect 34 0 33 0;
#X connect 35 0 38 0;
#X connect 36 0 35 0;
#X connect 37 0 42 0;
#X connect 38 0 37 0;
#X connect 39 0 40 0;
#X connect 40 0 32 1;
#X connect 40 0 31 1;
#X connect 40 0 34 1;
#X connect 40 0 33 1;
#X connect 40 0 36 1;
#X connect 40 0 35 1;
#X connect 40 0 38 1;
#X connect 40 0 37 1;
#X connect 40 0 42 1;
#X connect 40 0 44 1;
#X connect 40 0 46 1;
#X connect 40 0 48 1;
#X connect 40 0 50 1;
#X connect 40 0 52 1;
#X connect 40 0 54 1;
#X connect 40 0 56 1;
#X connect 41 0 44 0;
#X connect 42 0 41 0;
#X connect 43 0 46 0;
#X connect 44 0 43 0;
#X connect 45 0 48 0;
#X connect 46 0 45 0;
#X connect 47 0 50 0;
#X connect 48 0 47 0;
#X connect 49 0 52 0;
#X connect 50 0 49 0;
#X connect 51 0 54 0;
#X connect 52 0 51 0;
#X connect 53 0 56 0;
#X connect 54 0 53 0;
#X connect 55 0 58 2;
#X connect 56 0 55 0;
#X connect 57 0 3 0;
#X connect 57 1 14 0;
#X connect 57 2 32 0;
#X connect 58 0 10 1;
#X connect 59 0 63 0;
#X connect 59 0 58 0;
#X connect 63 0 57 0;
#X connect 65 0 66 0;
#X connect 66 0 1 0;
#X coords 0 -1 1 1 85 100 2 100 100;
