#N canvas 38 68 1362 699 10;
#X obj 42 324 freeverb~;
#X obj 81 60 inlet~;
#X obj 65 575 outlet~;
#X msg 30 139 wet \$1;
#X obj 131 242 hsl 128 15 0 1 0 0 empty empty roomsize -2 -8 0 10 -262144
-1 -1 10200 1;
#X msg 79 304 roomsize \$1;
#X obj 52 540 zexy/multiplex~;
#X obj 63 504 r \$0-on;
#X obj 233 149 tgl 15 0 \$0-on empty on/off 17 7 0 10 -262144 -1 -1
0 1;
#X obj 102 103 cnv 15 100 20 empty empty Reverb 20 12 0 14 -262144
-66577 0;
#X obj 130 178 hsl 128 15 0 1 0 1 empty empty empty -2 -8 0 10 -262144
-1 -1 4100 0;
#X text 102 177 dry;
#X text 261 177 wet;
#X obj 130 210 hsl 128 15 0 1 0 0 empty empty damping -2 -8 0 10 -262144
-1 -1 2600 1;
#X msg 173 305 damping \$1;
#X msg 309 344 freeze \$1;
#X obj 126 140 vradio 15 1 0 2 empty empty perpetuar_reverberacao 0
-8 0 10 -262144 -1 -1 0;
#X text 143 141 off;
#X text 143 157 on;
#X connect 0 0 6 1;
#X connect 1 0 0 0;
#X connect 3 0 0 0;
#X connect 4 0 5 0;
#X connect 5 0 0 0;
#X connect 6 0 2 0;
#X connect 7 0 6 0;
#X connect 10 0 3 0;
#X connect 13 0 14 0;
#X connect 14 0 0 0;
#X connect 15 0 0 0;
#X connect 16 0 15 0;
#X coords 0 -1 1 1 200 180 2 100 100;
