#N canvas 2 48 1362 699 10;
#X obj 50 326 freeverb~;
#X obj 81 60 inlet~;
#X obj 65 575 outlet~;
#X obj 120 116 hsl 128 15 0 1 0 0 empty empty wet -2 -8 0 10 -262144
-1 -1 0 1;
#X msg 117 136 wet \$1;
#X obj 122 179 hsl 128 15 0 1 0 0 empty empty dry -2 -8 0 10 -262144
-1 -1 0 1;
#X obj 123 240 hsl 128 15 0 1 0 0 empty empty roomsize -2 -8 0 10 -262144
-1 -1 0 1;
#X msg 119 199 dry \$1;
#X msg 120 260 roomsize \$1;
#X obj 52 540 zexy/multiplex~;
#X obj 63 504 r \$0-on;
#X obj 236 271 tgl 15 0 \$0-on empty on/off 17 7 0 10 -262144 -1 -1
0 1;
#X connect 0 0 9 1;
#X connect 1 0 0 0;
#X connect 3 0 4 0;
#X connect 4 0 0 0;
#X connect 5 0 7 0;
#X connect 6 0 8 0;
#X connect 7 0 0 0;
#X connect 8 0 0 0;
#X connect 9 0 2 0;
#X connect 10 0 9 0;
#X coords 0 -1 1 1 200 200 2 100 100;
