#N canvas 38 68 1362 699 10;
#X obj 279 136 bng 15 250 50 0 empty empty /ow/ 17 7 0 10 -262144 -1
-1;
#X floatatom 128 143 5 0 0 0 f1 - -, f 5;
#X floatatom 128 163 5 0 0 0 f2 - -, f 5;
#X floatatom 128 183 5 0 0 0 f3 - -, f 5;
#X obj 40 39 r vogal;
#X obj 279 156 bng 15 250 50 0 empty empty /oo/ 17 7 0 10 -262144 -1
-1;
#X obj 279 176 bng 15 250 50 0 empty empty /u/ 17 7 0 10 -262144 -1
-1;
#X obj 279 196 bng 15 250 50 0 empty empty /a/ 17 7 0 10 -262144 -1
-1;
#X obj 279 216 bng 15 250 50 0 empty empty /uh/ 17 7 0 10 -262144 -1
-1;
#X obj 279 236 bng 15 250 50 0 empty empty /er/ 17 7 0 10 -262144 -1
-1;
#X obj 279 256 bng 15 250 50 0 empty empty /ae/ 17 7 0 10 -262144 -1
-1;
#X obj 279 276 bng 15 250 50 0 empty empty /i/ 17 7 0 10 -262144 -1
-1;
#X obj 160 771 bp~ 500 10;
#X obj 240 771 bp~ 500 10;
#X floatatom 198 143 5 0 0 0 q1 - -, f 5;
#X floatatom 198 163 5 0 0 0 q2 - -, f 5;
#X floatatom 198 183 5 0 0 0 q3 - -, f 5;
#X obj 64 769 bp~ 500 10;
#X floatatom 128 203 5 0 0 0 f4 - -, f 5;
#X floatatom 198 203 5 0 0 0 q4 - -, f 5;
#X obj 320 771 bp~ 500 10;
#X obj 274 852 expr~ $v1+$v2+$v3+$v4;
#X obj 314 441 inlet;
#X obj 717 -106 inlet;
#X msg 528 131 \; vogal 570 570 840 2410 500;
#X msg 528 171 \; vogal 300 300 870 2240 500;
#X msg 528 211 \; vogal 440 440 1090 2240 500;
#X msg 528 251 \; vogal 730 730 1090 2440 500;
#X msg 528 291 \; vogal 520 520 1190 2390 500;
#X msg 528 331 \; vogal 490 490 1350 1690 500;
#X msg 528 371 \; vogal 660 660 1720 2410 500;
#X msg 528 411 \; vogal 390 390 1990 2550 500;
#X obj 40 68 unpack f f f f f;
#X obj 596 -10 bng 15 250 50 0 empty empty empty 17 7 0 10 -262144
-1 -1;
#X obj 314 465 spigot;
#X obj 596 24 outlet;
#X obj 312 496 outlet;
#X obj 730 -41 f;
#X obj 761 -41 + 1;
#X floatatom 730 -20 5 0 0 0 - - -, f 5;
#X obj 730 -1 % 8;
#X obj 520 52 zexy/demultiplex 0 1 2 3 4 5 6 7;
#X floatatom 730 23 5 0 0 0 - - -, f 5;
#X obj 730 -63 spigot;
#X obj 771 -108 r \$0-sequential;
#X obj 114 235 tgl 15 0 \$0-sequential empty sequential 17 7 0 10 -262144
-1 -1 0 1;
#X obj 115 266 tgl 15 0 \$0-random empty random 17 7 0 10 -262144 -1
-1 0 1;
#X obj 837 -52 spigot;
#X obj 868 -76 r \$0-random;
#X obj 837 -25 random 8;
#X floatatom 837 -3 5 0 0 0 - - -, f 5;
#X obj 517 27 spigot;
#X obj 495 -82 r \$0-sequential;
#X floatatom 495 -60 5 0 0 0 - - -, f 5;
#X floatatom 610 -60 5 0 0 0 - - -, f 5;
#X obj 610 -82 r \$0-random;
#X obj 551 2 ||;
#X obj 105 106 tgl 15 0 \$0-on empty on/off 17 7 0 10 -262144 -1 -1
0 1;
#X obj 353 439 r \$0-on;
#X obj 222 1086 outlet~;
#X floatatom 291 1016 5 0 0 0 - - -, f 5;
#X obj 221 1061 *~ 0;
#X obj 285 993 r \$0-on;
#N canvas 0 50 450 250 (subpatch) 0;
#X array \$0-sig 64 float 5;
#A 0 0.02781 0.0302547 0.0323861 0.0341769 0.0356096 0.0366768 0.0373811
0.0377334 0.0377508 0.0374539 0.0368646 0.0360029 0.0348854 0.0335424
0.0319831 0.0302099 0.0282193 0.0260044 0.0235579 0.0208753 0.0179577
0.0148144 0.0114649 0.00793938 0.00427811 0.000529996 -0.00325003 -0.00695316
-0.0105279 -0.0139316 -0.0171321 -0.0201085 -0.0228506 -0.0253572 -0.0276333
-0.029687 -0.0315263 -0.0331559 -0.0345743 -0.0357731 -0.0367357 -0.0374302
-0.037834 -0.0379231 -0.037674 -0.0370674 -0.0360901 -0.0347382 -0.0330178
-0.0309463 -0.0285513 -0.0258693 -0.0229438 -0.0198218 -0.0165951 -0.0133079
-0.00999509 -0.0066817 -0.00338275 -0.000104805 0.0031515 0.00638826
0.00960671 0.0128038;
#X coords 0 1 64 -1 200 140 1 0 0;
#X restore 433 849 graph;
#X obj 178 844 bang~;
#X obj 223 876 t b b b;
#X msg 528 461 \; vogal 500 1500 1000 15000 20;
#X obj 274 907 tabwrite~ \$0-sig;
#X obj 242 968 tabplay~ \$0-sig;
#X obj 130 908 f \$0;
#X msg 267 930 \; \$1-sig normalize 1;
#X obj 159 106 cnv 15 100 20 empty empty Subtrativa(Formantes) 20 12
0 14 -262144 -66577 0;
#X obj 539 527 oscilador_2;
#X obj 540 -31 t i i;
#X connect 0 0 24 0;
#X connect 1 0 17 1;
#X connect 2 0 12 1;
#X connect 3 0 13 1;
#X connect 4 0 32 0;
#X connect 5 0 25 0;
#X connect 6 0 26 0;
#X connect 7 0 27 0;
#X connect 8 0 28 0;
#X connect 9 0 29 0;
#X connect 10 0 30 0;
#X connect 11 0 31 0;
#X connect 12 0 21 1;
#X connect 13 0 21 2;
#X connect 14 0 17 2;
#X connect 15 0 12 2;
#X connect 16 0 13 2;
#X connect 17 0 21 0;
#X connect 18 0 20 1;
#X connect 19 0 20 2;
#X connect 20 0 21 3;
#X connect 21 0 67 0;
#X connect 22 0 34 0;
#X connect 23 0 33 0;
#X connect 23 0 47 0;
#X connect 23 0 43 0;
#X connect 32 0 1 0;
#X connect 32 1 2 0;
#X connect 32 2 3 0;
#X connect 32 3 18 0;
#X connect 32 4 14 0;
#X connect 32 4 15 0;
#X connect 32 4 16 0;
#X connect 32 4 19 0;
#X connect 33 0 35 0;
#X connect 33 0 51 0;
#X connect 34 0 36 0;
#X connect 34 0 72 0;
#X connect 37 0 38 0;
#X connect 37 0 39 0;
#X connect 38 0 37 1;
#X connect 39 0 40 0;
#X connect 40 0 42 0;
#X connect 41 0 0 0;
#X connect 41 1 5 0;
#X connect 41 2 6 0;
#X connect 41 3 7 0;
#X connect 41 4 8 0;
#X connect 41 5 9 0;
#X connect 41 6 10 0;
#X connect 41 7 11 0;
#X connect 42 0 41 1;
#X connect 43 0 37 0;
#X connect 44 0 43 1;
#X connect 47 0 49 0;
#X connect 48 0 47 1;
#X connect 49 0 50 0;
#X connect 50 0 41 1;
#X connect 51 0 41 0;
#X connect 52 0 53 0;
#X connect 53 0 73 0;
#X connect 54 0 73 0;
#X connect 55 0 54 0;
#X connect 56 0 51 1;
#X connect 58 0 34 1;
#X connect 60 0 61 1;
#X connect 61 0 59 0;
#X connect 62 0 60 0;
#X connect 64 0 65 0;
#X connect 65 0 68 0;
#X connect 65 1 69 0;
#X connect 65 2 67 0;
#X connect 68 0 61 0;
#X connect 69 0 70 0;
#X connect 72 0 20 0;
#X connect 72 0 13 0;
#X connect 72 0 12 0;
#X connect 72 0 17 0;
#X connect 73 0 56 0;
#X connect 73 1 56 1;
#X coords 0 -1 1 1 250 200 2 100 100;
