#N canvas 2 48 1362 699 10;
#X obj 166 1 inlet;
#X obj 353 114 inlet;
#X obj 165 27 spigot;
#X obj 352 141 outlet;
#X obj 244 42 outlet;
#X obj 335 188 tgl 15 0 \$0-on empty on/off 17 7 0 10 -262144 -1 -1
0 1;
#X obj 211 2 r \$0-on;
#X obj 67 570 outlet~;
#X floatatom 115 546 5 0 0 0 - - -, f 5;
#X obj 65 532 *~ 0;
#X obj 109 523 r \$0-on;
#N canvas 0 50 450 250 (subpatch) 0;
#X array \$0-wave 64 float 5;
#A 0 0 0 0 0 0 0 0 0 0 0 0 0 0 0 0 0 0 0 0 0 0 0 0 0 0 0 0 0 0 0 0
0 0 0 0 0 0 0 0 0 0 0 0 0 0 0 0 0 0 0 0 0 0 0 0 0 0 0 0 0 0 0 0 0;
#X coords 0 1 64 -1 200 140 1 0 0;
#X restore 207 270 graph;
#X obj 131 349 bang~;
#X obj 109 375 t b b b;
#X obj 89 11 noise~;
#X obj 164 50 unpack f f;
#X floatatom 164 72 5 0 0 0 - - -, f 5;
#X floatatom 233 74 5 0 0 0 - - -, f 5;
#X obj 111 69 bp~;
#X floatatom 301 249 5 0 0 0 - - -, f 5;
#X msg 256 217 10;
#X msg 296 217 50;
#X msg 336 217 100;
#X msg 376 217 250;
#X obj 290 459 tabwrite~ \$0-wave;
#X obj 91 452 tabplay~ \$0-wave;
#X obj 205 477 f \$0;
#X msg 191 514 \; \$1-wave normalize 1;
#X obj 443 404 zexy/multiplex~;
#X obj 442 355 r \$0-on;
#X connect 0 0 2 0;
#X connect 1 0 3 0;
#X connect 2 0 4 0;
#X connect 2 0 15 0;
#X connect 6 0 2 1;
#X connect 8 0 9 1;
#X connect 9 0 7 0;
#X connect 10 0 8 0;
#X connect 12 0 13 0;
#X connect 13 0 25 0;
#X connect 13 1 26 0;
#X connect 13 2 24 0;
#X connect 14 0 18 0;
#X connect 15 0 16 0;
#X connect 15 1 17 0;
#X connect 16 0 18 1;
#X connect 18 0 28 1;
#X connect 19 0 18 2;
#X connect 20 0 19 0;
#X connect 21 0 19 0;
#X connect 22 0 19 0;
#X connect 23 0 19 0;
#X connect 25 0 9 0;
#X connect 26 0 27 0;
#X connect 28 0 24 0;
#X connect 29 0 28 0;
#X coords 0 -1 1 1 320 320 2 100 100;
